<svg width="168" height="42" viewBox="0 0 168 42" fill="none" xmlns="http://www.w3.org/2000/svg">
<g id="Frame" clip-path="url(#clip0_534_476)">
<path id="Vector" d="M49.2775 29.8338H61.2295V26.2338H53.5255V12.6738H49.2775V29.8338Z" fill="#333333"/>
<path id="Vector_2" d="M68.3107 27.434C66.6067 27.434 65.7187 25.946 65.7187 23.714C65.7187 21.482 66.6067 19.97 68.3107 19.97C70.0147 19.97 70.9267 21.482 70.9267 23.714C70.9267 25.946 70.0147 27.434 68.3107 27.434ZM68.3347 30.218C72.2947 30.218 74.8867 27.41 74.8867 23.714C74.8867 20.018 72.2947 17.21 68.3347 17.21C64.3987 17.21 61.7587 20.018 61.7587 23.714C61.7587 27.41 64.3987 30.218 68.3347 30.218Z" fill="#333333"/>
<path id="Vector_3" d="M81.7411 34.0815C83.5651 34.0815 85.1731 33.6735 86.2531 32.7135C87.2371 31.8255 87.8851 30.4815 87.8851 28.6335V17.5455H84.1411V18.8655H84.0931C83.3731 17.8335 82.2691 17.1855 80.6371 17.1855C77.5891 17.1855 75.4771 19.7295 75.4771 23.3295C75.4771 27.0975 78.0451 29.1615 80.8051 29.1615C82.2931 29.1615 83.2291 28.5615 83.9491 27.7455H84.0451V28.9695C84.0451 30.4575 83.3491 31.3215 81.6931 31.3215C80.3971 31.3215 79.7491 30.7695 79.5331 30.1215H75.7411C76.1251 32.6895 78.3571 34.0815 81.7411 34.0815ZM81.7171 26.2575C80.2531 26.2575 79.2931 25.0575 79.2931 23.2095C79.2931 21.3375 80.2531 20.1375 81.7171 20.1375C83.3491 20.1375 84.2131 21.5295 84.2131 23.1855C84.2131 24.9135 83.4211 26.2575 81.7171 26.2575Z" fill="#333333"/>
<path id="Vector_4" d="M95.5835 27.434C93.8795 27.434 92.9915 25.946 92.9915 23.714C92.9915 21.482 93.8795 19.97 95.5835 19.97C97.2875 19.97 98.1995 21.482 98.1995 23.714C98.1995 25.946 97.2875 27.434 95.5835 27.434ZM95.6075 30.218C99.5675 30.218 102.159 27.41 102.159 23.714C102.159 20.018 99.5675 17.21 95.6075 17.21C91.6715 17.21 89.0315 20.018 89.0315 23.714C89.0315 27.41 91.6715 30.218 95.6075 30.218Z" fill="#333333"/>
<path id="Vector_5" d="M103.302 29.8338H107.214V17.5458H103.302V29.8338ZM103.302 15.8418H107.214V12.6738H103.302V15.8418Z" fill="#333333"/>
<path id="Vector_6" d="M108.911 33.8895H112.823V28.5615H112.871C113.639 29.5935 114.767 30.2175 116.351 30.2175C119.567 30.2175 121.703 27.6735 121.703 23.6895C121.703 19.9935 119.711 17.1855 116.447 17.1855C114.767 17.1855 113.567 17.9295 112.727 19.0335H112.655V17.5455H108.911V33.8895ZM115.343 27.1935C113.663 27.1935 112.703 25.8255 112.703 23.8335C112.703 21.8415 113.567 20.3295 115.271 20.3295C116.951 20.3295 117.743 21.7215 117.743 23.8335C117.743 25.9215 116.831 27.1935 115.343 27.1935Z" fill="#333333"/>
<path id="Vector_7" d="M128.072 30.2175C131.288 30.2175 133.664 28.8255 133.664 26.1375C133.664 22.9935 131.12 22.4415 128.96 22.0815C127.4 21.7935 126.008 21.6735 126.008 20.8095C126.008 20.0415 126.752 19.6815 127.712 19.6815C128.792 19.6815 129.536 20.0175 129.68 21.1215H133.28C133.088 18.6975 131.216 17.1855 127.736 17.1855C124.832 17.1855 122.432 18.5295 122.432 21.1215C122.432 24.0015 124.712 24.5775 126.848 24.9375C128.48 25.2255 129.968 25.3455 129.968 26.4495C129.968 27.2415 129.224 27.6735 128.048 27.6735C126.752 27.6735 125.936 27.0735 125.792 25.8495H122.096C122.216 28.5615 124.472 30.2175 128.072 30.2175Z" fill="#333333"/>
<path id="Vector_8" d="M138.978 30.1939C140.682 30.1939 141.762 29.5219 142.65 28.3219H142.722V29.8339H146.466V17.5459H142.554V24.4099C142.554 25.8739 141.738 26.8819 140.394 26.8819C139.146 26.8819 138.546 26.1379 138.546 24.7939V17.5459H134.658V25.6099C134.658 28.3459 136.146 30.1939 138.978 30.1939Z" fill="#333333"/>
<path id="Vector_9" d="M148.168 29.8335H152.08V22.9455C152.08 21.4815 152.8 20.4495 154.024 20.4495C155.2 20.4495 155.752 21.2175 155.752 22.5375V29.8335H159.664V22.9455C159.664 21.4815 160.36 20.4495 161.608 20.4495C162.784 20.4495 163.336 21.2175 163.336 22.5375V29.8335H167.248V21.8415C167.248 19.0815 165.856 17.1855 163.072 17.1855C161.488 17.1855 160.168 17.8575 159.208 19.3455H159.16C158.536 18.0255 157.312 17.1855 155.704 17.1855C153.928 17.1855 152.752 18.0255 151.984 19.2975H151.912V17.5455H148.168V29.8335Z" fill="#333333"/>
<path id="Vector_10" d="M25.4099 2.85806L21.4769 1.8042L18.1625 14.1738L15.1702 3.00644L11.2371 4.0603L14.4701 16.1258L6.41746 8.07318L3.53827 10.9524L12.371 19.7852L1.37124 16.8378L0.317383 20.7708L12.336 23.9912C12.1984 23.3977 12.1256 22.7793 12.1256 22.1439C12.1256 17.6463 15.7716 14.0003 20.2692 14.0003C24.7668 14.0003 28.4128 17.6463 28.4128 22.1439C28.4128 22.7752 28.3409 23.3898 28.205 23.9798L39.1277 26.9065L40.1815 22.9735L28.1151 19.7403L39.1156 16.7927L38.0617 12.8597L25.9958 16.0927L34.0484 8.04012L31.1692 5.16093L22.459 13.8712L25.4099 2.85806Z" fill="#0099FF"/>
<path id="Vector_11" d="M28.1943 24.0259C27.8571 25.4515 27.1452 26.7322 26.1684 27.7583L34.0814 35.6714L36.9606 32.7922L28.1943 24.0259Z" fill="#0099FF"/>
<path id="Vector_12" d="M26.0884 27.8408C25.0998 28.8505 23.8505 29.604 22.4495 29.9923L25.3289 40.7383L29.2619 39.6844L26.0884 27.8408Z" fill="#0099FF"/>
<path id="Vector_13" d="M22.3026 30.0316C21.6526 30.1987 20.9713 30.2875 20.2692 30.2875C19.517 30.2875 18.7886 30.1855 18.0971 29.9946L15.2151 40.7504L19.1481 41.8042L22.3026 30.0316Z" fill="#0099FF"/>
<path id="Vector_14" d="M17.9581 29.9553C16.5785 29.5477 15.3514 28.7846 14.383 27.772L6.45052 35.7045L9.32971 38.5837L17.9581 29.9553Z" fill="#0099FF"/>
<path id="Vector_15" d="M14.3168 27.7018C13.365 26.6828 12.6717 25.4192 12.3417 24.0156L1.38335 26.9519L2.4372 30.8849L14.3168 27.7018Z" fill="#0099FF"/>
</g>
<defs>
<clipPath id="clip0_534_476">
<rect width="168" height="41" fill="white" transform="translate(0 0.881348)"/>
</clipPath>
</defs>
</svg>
